<?xml version="1.0" encoding="UTF-8"?>
<svg id="Bản_quyền_Mầm" data-name="Bản quyền Mầm" xmlns="http://www.w3.org/2000/svg" viewBox="0 0 565.28 183.83">
  <defs>
    <style>
      .cls-1 {
        font-family: PlusJakartaSans-Light, 'Plus Jakarta Sans';
        font-size: 18.43px;
        font-variation-settings: 'wght' 300;
        font-weight: 300;
      }

      .cls-1, .cls-2 {
        fill: #d71a61;
      }

      .cls-3 {
        letter-spacing: 0em;
      }

      .cls-4 {
        letter-spacing: -.02em;
      }

      .cls-5 {
        letter-spacing: 0em;
      }

      .cls-2 {
        stroke-width: 0px;
      }
    </style>
  </defs>
  <text class="cls-1" transform="translate(143.02 166.58)"><tspan x="0" y="0">One “click&quot; </tspan><tspan class="cls-4" x="99.02" y="0">t</tspan><tspan x="105.71" y="0">o launch </tspan><tspan class="cls-5" x="181.33" y="0">y</tspan><tspan class="cls-3" x="190.95" y="0">our </tspan><tspan class="cls-5" x="222.9" y="0">w</tspan><tspan x="237.14" y="0">orld!</tspan></text>
  <g>
    <g>
      <path class="cls-2" d="m520.8,131.1c-1.74-1.74-3.88-2.61-6.4-2.61s-4.66.87-6.4,2.61c-1.74,1.74-2.62,3.81-2.62,6.18s.87,4.44,2.62,6.18c1.74,1.74,3.87,2.62,6.4,2.62s4.66-.87,6.4-2.62c1.74-1.74,2.62-3.8,2.62-6.18s-.87-4.44-2.62-6.18Z"/>
      <path class="cls-2" d="m244.91,142.92l-.15-.07s.07.07.15.07Z"/>
    </g>
    <path class="cls-2" d="m481.78,118.23l-17.01-23.21c11.34-9.6,23.09-22.51,35.25-38.74h-25.04c-8.43,12.51-21.17,24.72-38.21,36.64V26.79h-20.33v29.66l-11.17.26c-19.31.35-31.26,7.45-35.87,21.27-1.93-3.68-4.41-7.12-7.45-10.32-8.35-8.81-20.02-13.22-35.03-13.22s-25.82,4.09-34.1,12.27c4.12-13.65,7.58-26.96,10.37-39.93h-21.11c-6.57,29.78-15.65,58.89-27.22,87.33-10.59-28.56-19.98-57.67-28.18-87.33h-23.03c-8.49,29.49-17.97,58.6-28.44,87.33-1.71-4.24-3.38-8.5-4.98-12.79-2.6-6.92-5.06-13.9-7.38-20.92-.57-1.72-1.13-3.45-1.68-5.18-4.31-13.48-6.5-27.55-6.53-41.7v-.2c0-4.76-1.29-9.19-3.77-13.27-5.96-9.8-17.77-14.58-28.41-11.48-5.61,1.64-10.12,5.17-14.55,8.75-12.26,9.92-24.47,19.89-36.65,29.92-7.99,6.58-16.18,12.97-23.72,20.03-13.86,12.98-8.71,36.29,9.25,42.45,3.41,1.17,7.21,1.58,10.84,1.65,11.05.21,22.1.11,33.15.05,1.8,0,2.48.51,2.4,2.37-.13,2.98-.09,5.98-.02,8.97.13,5.35,1.7,10.25,4.9,14.58,8.59,11.61,23.42,13.22,34.73,6.83,6.46-3.65,9.87-9.38,9.88-15.59,0-3.56-1.11-7.27-3.4-10.83-.34-.53-.7-1.05-1.07-1.54-2.74-3.64-6.32-6.37-10.53-8.29-5.9-2.69-12.23-3.11-18.55-3.15-17.51-.11-35.03-.02-52.54-.04-1.8,0-3.66.06-5.39-.33-9.6-2.11-16.03-11.23-14.83-21.18,1.15-9.61,9.13-16.78,18.95-16.75,21.55.06,43.09-.06,64.64.05.05,0,.11,0,.16,0,4.21.04,7.91,2.8,9.18,6.82l.02.06c-1.13-.46-2.31-.85-3.55-1.16-4.31-1.08-8.94-1.14-13.43-1.21-8.75-.13-17.51.09-26.26.13-9.87.04-19.74-.16-29.59.13-10.26.3-16.78,11.72-12.06,20.83,2.92,5.62,7.82,8.06,14.02,8.07,20.16.02,40.32.02,60.47.02,8.28,0,15.29,3.04,21.09,8.9.6.61,1.17,1.25,1.73,1.9.56.65,1.11,1.31,1.68,1.96h0c1.63,4.06,3.27,8,4.93,11.83.01.02.02.05.03.07,4.72,10.85,15.42,17.88,27.26,17.88,5.9-15.09,11.3-29.66,16.18-43.69,4.89-14.03,9.26-27.53,13.13-40.5,8.72,28.15,18.55,56.21,29.49,84.19h.18l.2.1s-.02-.06-.02-.1c5.81,0,11.35-1.72,16.02-4.76,4.67-3.05,8.47-7.42,10.8-12.74,2.77-6.32,5.48-12.96,8.14-19.93,1.13,9.91,5.19,18.56,12.19,25.96,8.35,8.81,20.02,13.22,35.03,13.22s26.68-4.41,35.03-13.22c2-2.11,3.76-4.33,5.28-6.65v18.12h20.33v-49.47c0-6.22,1.47-10.79,4.4-13.7,2.94-2.91,7.49-4.48,13.65-4.71l10.82-.26v68.13h20.33v-27.13c3.84-2.15,8-4.91,12.48-8.29l16.05,21.81c4.07,5.41,7.84,9.1,11.3,11.08,3.46,1.98,9.06,3.55,16.79,4.71l3.58.52,2.09-17.36-1.74-.35c-6.52-1.34-11.69-4.51-15.53-9.51Zm-358.96-6.32c1.15.18,2.87-.59,2.86,1.65-.01,2.5-.02,4.99.02,7.49.04,2.65,1.29,4.24,3.26,4.26,2.08.02,3.42-1.61,3.49-4.32.04-1.73-.09-3.48.06-5.2,0-.04,0-.09.02-.13.2-1.11,1.44-1.71,2.47-1.23.53.25.87.78,1.09,1.31.19.47.3.96.35,1.47.24,2.59.48,4.53-.08,7.16-.82,3.84-4.93,6.16-9.03,5.65-3.37-.41-6.27-3.87-6.4-7.67-.05-1.39,0-2.77,0-4.16,0-1.53.05-3.05-.02-4.58-.06-1.42.64-1.9,1.92-1.7Zm-10.83-.42c1.18.02,2.44-.19,2.39,1.69-.07,2.92-.03,5.84-.02,8.76.04,8.09,6.05,14.46,13.77,14.63,6.62.14,12.09-3.6,14.26-9.26.55-1.44.89-3,.98-4.65h0c.03-.52.71-.68.96-.23,1.35,2.42,1.78,4.73,1.52,6.85-.53,4.32-3.93,7.87-8.2,9.95-13.61,6.62-27.95-2.53-27.99-17.67,0-2.78.06-5.56-.03-8.34-.06-1.86,1.13-1.74,2.35-1.73Zm11.36-51.53c-1.77.1-2.55-.75-2.46-2.26.08-1.38.08-2.78-.02-4.16,0,0,0-.01,0-.02-.1-1.23-1.55-1.87-2.55-1.14-.02.01-.04.03-.06.04-2.03,1.57-4.18,3.04-5.94,4.88-2.2,2.29-4.75,2.9-7.73,2.65-.77-.06-1.55,0-2.33,0-.08-.23-.08-.24-.17-.47,7.69-6.31,15.38-12.61,23.32-19.12.1.7.2,1.08.2,1.46.01,5.27-.07,10.55.05,15.81.05,2.18-.73,2.25-2.33,2.34Zm13.51.82c0,.19-.13.38-.2.57-.38,0-.73,0-1.05-.03-2.77-.16-3.43-1.08-3.43-4.1,0-2.79-.01-5.59-.01-8.38,0-4.71,0-9.42,0-14.13,0-1.79-.33-3.33-2.08-4.2-.88-.44-1.66-.41-2.37-.15-.71.26-1.35.76-1.97,1.27-9.86,8.12-19.81,16.15-29.5,24.46-3.57,3.06-7.21,4.71-12.23,3.56,4.33-3.57,8.42-6.98,12.56-10.35,8.08-6.57,16.19-13.11,24.28-19.68,2.52-2.05,5.15-3.73,8.61-3.62,1.38.04,2.61.31,3.66.79,2.27,1.04,3.65,3.09,3.7,6.05.16,9.31.05,18.62.04,27.93Zm-5.51,33.04c-7.07-.37-14.17-.36-21.25-.38-13.9-.04-27.8.02-41.71.04-2.1,0-4.17-.03-5.91-1.5-2.63-2.21-3.73-5.94-2.62-9.05,1.17-3.28,3.8-5.15,7.54-5.15,21.13-.02,42.26-.18,63.39.09.47,0,.93.02,1.38.05,5.23.3,9.74,3.75,11.44,8.7l.02.06c-3.86-2.58-8.39-4.05-13.68-4.11-20.5-.23-41.01-.07-61.52-.07-.49,0-.98-.03-1.46.03-1.68.21-2.68,1.25-2.8,2.87-.12,1.63.72,2.83,2.38,3.21.94.21,1.93.29,2.89.3,3.61.05,7.23.05,10.84.06,16.82.01,33.65-.09,50.47.07.18,0,.36,0,.53.01,7.97.22,14.98,5.35,17.77,12.82.33.9.67,1.78,1.01,2.67-4.65-5.79-12.12-10.37-18.72-10.71Zm13.59-21.33c-.75-1.62-1.19-3.37-1.3-5.16l-.15-2.51c-.12-2.06-.15-4.12-.1-6.18.18-7.9-.06-15.81.05-23.72.04-3.04-.4-5.79-1.55-8.13-1.19-2.39-3.12-4.36-6.06-5.75-5.97-2.84-11.72-1.89-16.89,1.94-5.02,3.72-9.82,7.73-14.66,11.68-9.57,7.82-19.15,15.64-28.61,23.6-2.8,2.36-5.85,1.41-8.84,1.7-.12-.28-.11-.26-.22-.53,3.31-2.74,6.61-5.49,9.94-8.21,12.49-10.18,24.98-20.36,37.5-30.51,1.56-1.27,3.2-2.45,4.91-3.52,10.86-6.79,23.83-1.72,27.91,9.6.22.62.42,1.26.59,1.91.36,1.39.42,2.89.43,4.34.1,11.19.16,22.37.22,33.56,0,.77.08,1.54.24,2.3.16.75.39,1.49.69,2.2l6.44,14.98s.01.03.02.05c1.54,3.58,1.93,7.56,1.17,11.38-.02.09-.04.18-.05.26l-11.69-25.3Zm201.96,45.3c-4.54,5.06-11.21,7.59-20.02,7.59s-15.47-2.53-19.98-7.59c-4.51-5.06-6.76-11.15-6.76-18.28s2.25-13.23,6.76-18.32c4.51-5.09,11.17-7.63,19.98-7.63s15.49,2.54,20.02,7.63c4.54,5.09,6.8,11.2,6.8,18.32s-2.27,13.22-6.8,18.28Z"/>
  </g>
</svg>